<?xml version="1.0" encoding="UTF-8" standalone="no"?>
<!-- Created with Inkscape (http://www.inkscape.org/) -->

<svg
   xmlns:dc="http://purl.org/dc/elements/1.1/"
   xmlns:cc="http://creativecommons.org/ns#"
   xmlns:rdf="http://www.w3.org/1999/02/22-rdf-syntax-ns#"
   xmlns:svg="http://www.w3.org/2000/svg"
   xmlns="http://www.w3.org/2000/svg"
   xmlns:xlink="http://www.w3.org/1999/xlink"
   xmlns:sodipodi="http://sodipodi.sourceforge.net/DTD/sodipodi-0.dtd"
   xmlns:inkscape="http://www.inkscape.org/namespaces/inkscape"
   width="728"
   height="90"
   id="svg3062"
   version="1.1"
   inkscape:version="0.48.0 r9654"
   sodipodi:docname="banner-468x60.svg"
   inkscape:export-filename="/home/tiger/Documents/spread-ubuntu/banners/banner-468x60.png"
   inkscape:export-xdpi="90"
   inkscape:export-ydpi="90">
  <defs
     id="defs3064">
    <clipPath
       clipPathUnits="userSpaceOnUse"
       id="clipPath17335">
      <path
         inkscape:connector-curvature="0"
         inkscape:export-ydpi="89.882965"
         inkscape:export-xdpi="89.882965"
         inkscape:export-filename="/home/tiger/Documents/spread-ubuntu/banners/banner1.png"
         id="path17337"
         d="m 87.771149,1309.323 -274.194189,0 0,-1412.29046 C -37.705799,-31.909768 43.511088,47.699583 87.771149,115.43583 l 0,1193.88717 z"
         style="fill:#762c54;fill-opacity:1;fill-rule:nonzero;stroke:none" />
    </clipPath>
    <linearGradient
       inkscape:collect="always"
       xlink:href="#linearGradient16768"
       id="linearGradient17463"
       gradientUnits="userSpaceOnUse"
       gradientTransform="matrix(0,-0.8333333,-0.80357143,0,817.60715,562.3622)"
       x1="-1.9200001e-05"
       y1="550.79999"
       x2="71.999985"
       y2="550.79999" />
    <linearGradient
       id="linearGradient16768">
      <stop
         style="stop-color:#ffffff;stop-opacity:0.23529412;"
         offset="0"
         id="stop16770" />
      <stop
         style="stop-color:#ffffff;stop-opacity:0;"
         offset="1"
         id="stop16772" />
    </linearGradient>
    <linearGradient
       inkscape:collect="always"
       xlink:href="#linearGradient16768"
       id="linearGradient7911"
       gradientUnits="userSpaceOnUse"
       gradientTransform="matrix(0,-0.8333333,-0.80357143,0,817.60715,562.3622)"
       x1="-1.9200001e-05"
       y1="550.79999"
       x2="71.999985"
       y2="550.79999" />
    <linearGradient
       inkscape:collect="always"
       xlink:href="#linearGradient16768"
       id="linearGradient7941"
       gradientUnits="userSpaceOnUse"
       gradientTransform="matrix(0,-0.8333333,-0.80357143,0,676.60715,1052.3622)"
       x1="-1.9200001e-05"
       y1="550.79999"
       x2="71.999985"
       y2="550.79999" />
    <linearGradient
       inkscape:collect="always"
       xlink:href="#linearGradient16768"
       id="linearGradient8514"
       gradientUnits="userSpaceOnUse"
       gradientTransform="matrix(0,-0.8333333,-0.80357143,0,676.60715,1052.3622)"
       x1="-1.9200001e-05"
       y1="550.79999"
       x2="71.999985"
       y2="550.79999" />
    <linearGradient
       inkscape:collect="always"
       xlink:href="#linearGradient16768"
       id="linearGradient8545"
       gradientUnits="userSpaceOnUse"
       gradientTransform="matrix(0,-1.249999,-1.25,0,1052.5,1052.3622)"
       x1="-1.9200001e-05"
       y1="550.79999"
       x2="71.999985"
       y2="550.79999" />
  </defs>
  <sodipodi:namedview
     id="base"
     pagecolor="#ffffff"
     bordercolor="#666666"
     borderopacity="1.0"
     inkscape:pageopacity="0.0"
     inkscape:pageshadow="2"
     inkscape:zoom="0.7"
     inkscape:cx="376.1719"
     inkscape:cy="27.797033"
     inkscape:document-units="px"
     inkscape:current-layer="layer1"
     showgrid="false"
     inkscape:window-width="1023"
     inkscape:window-height="739"
     inkscape:window-x="1"
     inkscape:window-y="1"
     inkscape:window-maximized="1" />
  <metadata
     id="metadata3067">
    <rdf:RDF>
      <cc:Work
         rdf:about="">
        <dc:format>image/svg+xml</dc:format>
        <dc:type
           rdf:resource="http://purl.org/dc/dcmitype/StillImage" />
        <dc:title></dc:title>
      </cc:Work>
    </rdf:RDF>
  </metadata>
  <g
     inkscape:label="Layer 1"
     inkscape:groupmode="layer"
     id="layer1"
     transform="translate(0,-962.36218)">
    <path
       inkscape:connector-curvature="0"
       inkscape:export-ydpi="90"
       inkscape:export-xdpi="90"
       inkscape:export-filename="/home/tiger/Documents/spread-ubuntu/banners/banner2a.png"
       id="path17339"
       style="fill:#dd4814;fill-opacity:1;fill-rule:nonzero;stroke:none"
       d="m 728,1052.3622 0,-89.99998 -728,0 0,89.99998 728,0 z" />
    <path
       inkscape:connector-curvature="0"
       inkscape:export-ydpi="90"
       inkscape:export-xdpi="90"
       inkscape:export-filename="/home/tiger/Documents/spread-ubuntu/banners/banner2a.png"
       id="path17341"
       d="m 0,962.36222 0,89.99998 451.56211,0 c -23.32355,-48.8142 -49.45407,-75.47231 -71.68743,-89.99998 z"
       style="fill:#762c54;fill-opacity:1;fill-rule:nonzero;stroke:none"
       sodipodi:nodetypes="ccccc" />
    <path
       inkscape:connector-curvature="0"
       d="m 728,1052.3622 0,-89.99998 -728,0 0,89.99998 728,0 z"
       style="fill:url(#linearGradient8545);fill-opacity:1;fill-rule:nonzero;stroke:none"
       id="path17343"
       inkscape:export-filename="/home/tiger/Documents/spread-ubuntu/banners/banner2a.png"
       inkscape:export-xdpi="90"
       inkscape:export-ydpi="90" />
    <g
       clip-path="url(#clipPath17335)"
       style="opacity:0.07999998"
       transform="matrix(0,-0.32823425,-0.32823425,0,429.76466,991.17168)"
       id="g17345"
       inkscape:export-filename="/home/tiger/Documents/spread-ubuntu/banners/banner2a.png"
       inkscape:export-xdpi="90"
       inkscape:export-ydpi="90">
      <path
         inkscape:connector-curvature="0"
         id="path17347"
         d="m 154.16513,955.37277 c 0,162.90243 -132.351653,294.56003 -295.25406,294.56003 -162.8943,0 -295.25411,-131.6576 -295.25411,-294.56003 0,-162.91059 132.35981,-295.25397 295.25411,-295.25397 162.902407,0 295.25406,132.34338 295.25406,295.25397 z M 72.188707,857.41816 c 0.53623,-7.56594 -1.48536,-15.16605 -5.55773,-22.2309 -10.87588,-18.83148 -34.65349,-25.47334 -53.49308,-14.58931 -18.8396001,10.86775 -25.47305,35.34867 -14.5890301,54.18828 10.86777,18.83148 34.6616101,24.76156 53.4930901,13.89381 11.76966,-6.79723 19.25306,-18.65252 20.14675,-31.26188 z m -42.37764,97.95461 c 0,-15.83717 -2.23396,-31.29037 -6.25245,-45.85121 -15.8216801,-2.56238 -30.2570201,-12.12617 -38.90406,-27.09374 -8.61448,-14.95129 -9.1271,-32.273 -3.47358,-47.24056 -28.63359,-29.12168 -67.772916,-47.95804 -111.154457,-50.71483 l -0.69469,56.27235 c 58.763967,5.17357 104.902017,54.52993 104.902017,114.62799 0,17.3103 -4.25801,33.2198 -11.11544,47.93523 l 49.3248,27.7893 c 11.32328,-22.85 17.36788,-48.49823 17.36788,-75.72453 z M 1.3277269,1049.8539 -46.607643,1021.3708 c -20.8163,29.5772 -55.565617,48.6299 -94.481287,48.6299 -38.92381,0 -72.97843,-19.0527 -93.78661,-48.6299 l -48.63011,28.4831 c 23.02899,34.4742 58.11028,60.2217 99.34438,70.8617 10.1437,-12.4304 25.77829,-20.1469 43.07234,-20.1469 17.31032,0 32.92043,7.7165 43.072341,20.1469 41.217746,-10.6571 76.315426,-36.4038 99.3443159,-70.8617 z M -101.4902,1155.4509 c 0,-21.7436 -17.83882,-38.9043 -39.59873,-38.9043 -21.75178,0 -39.59881,17.1607 -39.59881,38.9043 0,21.7599 17.84703,39.599 39.59881,39.599 21.75991,0 39.59873,-17.8391 39.59873,-39.599 z m -50.01949,-314.70612 -0.69469,-56.27235 c -43.38154,2.75842 -82.52083,21.59315 -111.15443,50.71483 5.65351,14.96756 5.15714,32.273 -3.47362,47.24056 -8.65516,14.96757 -23.07421,24.53217 -38.90404,27.09374 -4.02652,14.56084 -6.25245,30.01404 -6.25245,45.85121 0,27.2263 6.03648,52.87453 17.3679,75.72453 l 49.32481,-27.7893 c -6.84929,-14.71543 -11.11546,-30.62493 -11.11546,-47.93523 0,-60.09806 46.12988,-109.47069 104.90198,-114.62799 z m -123.65935,11.11586 c -0.89333,-12.60936 -8.38216,-24.47035 -20.14675,-31.26269 -18.83961,-10.87589 -42.62535,-4.24217 -53.4931,14.58931 -10.88403,18.83961 -4.24241,42.62502 14.58906,53.49278 18.82335,10.87589 42.61722,4.9458 53.49311,-13.89381 4.07541,-7.06241 6.09367,-15.36046 5.55768,-22.92559 z"
         style="fill:#ffffff;fill-opacity:1;fill-rule:nonzero;stroke:none" />
    </g>
    <g
       id="g8471"
       transform="matrix(1.4999988,0,0,1.4999988,-2.9999976,-524.85564)">
      <text
         xml:space="preserve"
         style="font-size:14px;font-style:normal;font-variant:normal;font-weight:normal;font-stretch:normal;fill:#ffffff;fill-opacity:1;stroke:none;font-family:Ubuntu Beta;-inkscape-font-specification:Ubuntu Beta"
         x="8.401474"
         y="1031.2294"
         id="text17349"
         inkscape:export-filename="/home/tiger/Documents/spread-ubuntu/banners/banner2a.png"
         inkscape:export-xdpi="90"
         inkscape:export-ydpi="90"><tspan
           sodipodi:role="line"
           id="tspan17351"
           x="8.401474"
           y="1031.2294">Your computer can be better - it can be...</tspan></text>
      <text
         inkscape:export-ydpi="90"
         inkscape:export-xdpi="90"
         inkscape:export-filename="/home/tiger/Documents/spread-ubuntu/banners/banner2a.png"
         xml:space="preserve"
         style="font-size:14px;font-style:normal;font-variant:normal;font-weight:normal;font-stretch:normal;fill:#ffffff;fill-opacity:1;stroke:none;font-family:Ubuntu Beta;-inkscape-font-specification:Ubuntu Beta"
         x="108.76424"
         y="1045.0657"
         id="text17353"><tspan
           sodipodi:role="line"
           id="tspan17355"
           x="108.76424"
           y="1045.0657">fast, fun and easier to use.</tspan></text>
      <text
         inkscape:export-ydpi="90"
         inkscape:export-xdpi="90"
         inkscape:export-filename="/home/tiger/Documents/spread-ubuntu/banners/banner2a.png"
         id="text17357"
         y="1014.2847"
         x="7.5107617"
         style="font-size:24.05417061px;font-style:normal;font-variant:normal;font-weight:normal;font-stretch:normal;fill:#ffffff;fill-opacity:1;stroke:none;font-family:Ubuntu Beta;-inkscape-font-specification:Ubuntu Beta"
         xml:space="preserve"><tspan
           y="1014.2847"
           x="7.5107617"
           id="tspan17359"
           sodipodi:role="line">it's time for a change...</tspan></text>
    </g>
    <g
       inkscape:export-ydpi="90"
       inkscape:export-xdpi="90"
       inkscape:export-filename="/home/tiger/Documents/spread-ubuntu/banners/banner2a.png"
       id="g17361"
       transform="matrix(0,-1.249999,-1.249999,0,1048.4991,1052.3622)">
      <g
         id="g17363"
         transform="matrix(0.29272943,0,0,0.29272943,20.109163,298.2744)">
        <path
           inkscape:connector-curvature="0"
           d="m 0,0 0,-1.084 c 0,-0.915 0.047,-1.752 1.096,-1.752 0.885,0 1.021,0.762 1.021,1.464 L 2.117,0 0,0 z m 2.956,1.034 0,-2.573 c 0,-1.586 -0.624,-2.333 -1.906,-2.333 -1.202,0 -1.705,0.762 -1.812,1.753 l -2.942,-1.904 0,1.112 2.866,1.812 0,1.099 -2.866,0 0,1.034 6.66,0 z M -5.24,-1.191 c 0,-2.634 2.101,-4.676 4.89,-4.676 2.727,0 4.83,2.042 4.83,4.676 0,2.668 -2.103,4.709 -4.83,4.709 -2.789,0 -4.89,-2.041 -4.89,-4.709 m 10.557,0 c 0,-3.108 -2.452,-5.712 -5.667,-5.712 -3.276,0 -5.729,2.604 -5.729,5.712 0,3.125 2.453,5.744 5.729,5.744 3.215,0 5.667,-2.619 5.667,-5.744"
           style="fill:#ffffff;fill-opacity:1;fill-rule:nonzero;stroke:none"
           id="path17365" />
      </g>
      <g
         id="g17367"
         transform="matrix(0.29272943,0,0,0.29272943,45.300874,276.70111)">
        <path
           inkscape:connector-curvature="0"
           d="m 0,0 c -20.025,0 -36.26,16.234 -36.26,36.261 0,20.026 16.235,36.261 36.26,36.261 20.026,0 36.261,-16.235 36.261,-36.261 C 36.261,16.234 20.026,0 0,0"
           style="fill:#ffffff;fill-opacity:1;fill-rule:nonzero;stroke:none"
           id="path17369" />
      </g>
      <g
         id="g17371"
         transform="matrix(0.29272943,0,0,0.29272943,50.325281,284.41541)"
         style="fill:#dd4814">
        <path
           inkscape:connector-curvature="0"
           d="M 0,0 C -1.338,-2.316 -0.546,-5.275 1.77,-6.611 4.086,-7.949 7.046,-7.156 8.383,-4.841 9.718,-2.525 8.925,0.435 6.61,1.772 4.295,3.108 1.336,2.315 0,0 m -31.305,9.908 c 0,2.128 0.474,4.147 1.316,5.956 l -6.028,3.364 c -1.393,-2.809 -2.178,-5.973 -2.178,-9.32 0,-1.947 0.27,-3.829 0.765,-5.619 1.946,-0.315 3.736,-1.47 4.8,-3.31 1.061,-1.84 1.166,-3.965 0.471,-5.805 3.52,-3.58 8.308,-5.91 13.641,-6.249 l 0.101,6.9 c -7.225,0.634 -12.888,6.695 -12.888,14.083 m 28.283,0 c 0,-7.388 -5.664,-13.449 -12.888,-14.085 l 0.102,-6.898 c 5.333,0.339 10.121,2.669 13.641,6.249 -0.695,1.84 -0.589,3.967 0.47,5.805 1.063,1.84 2.855,2.995 4.8,3.31 0.494,1.79 0.764,3.672 0.764,5.619 0,3.347 -0.785,6.511 -2.177,9.32 l -6.028,-3.364 c 0.843,-1.809 1.316,-3.828 1.316,-5.956 m -14.142,14.141 c 4.784,0 9.011,-2.377 11.57,-6.013 l 5.928,3.539 c -2.831,4.236 -7.157,7.387 -12.224,8.697 -1.248,-1.528 -3.146,-2.506 -5.274,-2.506 -2.126,0 -4.025,0.978 -5.272,2.506 -5.069,-1.308 -9.395,-4.459 -12.226,-8.697 l 5.929,-3.539 c 2.558,3.636 6.784,6.013 11.569,6.013 m -17.161,-24.05 c -1.337,2.316 -4.297,3.109 -6.611,1.772 -2.315,-1.336 -3.11,-4.296 -1.772,-6.612 1.336,-2.315 4.295,-3.109 6.611,-1.772 2.314,1.336 3.108,4.297 1.772,6.612 m 22.003,34.565 c 0,2.675 -2.167,4.843 -4.842,4.843 -2.674,0 -4.841,-2.168 -4.841,-4.843 0,-2.673 2.167,-4.841 4.841,-4.841 2.675,0 4.842,2.168 4.842,4.841"
           style="fill:#dd4814;fill-opacity:1;fill-rule:nonzero;stroke:none"
           id="path17373" />
      </g>
      <g
         id="g17375"
         transform="matrix(0.29272943,0,0,0.29272943,17.44913,432.83157)">
        <path
           inkscape:connector-curvature="0"
           d="m 0,0 c -0.922,3.685 -1.9,8.547 -2.935,14.591 -1.037,6.043 -1.554,13.036 -1.554,20.979 0,6.907 1.008,12.721 3.02,17.44 2.013,4.721 4.863,8.52 8.548,11.396 3.683,2.878 8.03,4.95 13.037,6.216 5.007,1.268 10.559,1.899 16.662,1.899 l 50.419,0 0,-16.058 -46.965,0 c -10.938,0 -18.765,-1.727 -23.482,-5.18 -4.723,-3.453 -7.081,-9.265 -7.081,-17.44 0,-1.726 0.057,-3.509 0.174,-5.352 0.112,-1.84 0.259,-3.567 0.431,-5.18 0.173,-1.611 0.344,-3.079 0.517,-4.404 0.173,-1.322 0.372,-2.272 0.604,-2.848 l 75.802,0 0,-16.059"
           style="fill:#ffffff;fill-opacity:1;fill-rule:nonzero;stroke:none"
           id="path17377" />
      </g>
      <g
         id="g17379"
         transform="matrix(0.29272943,0,0,0.29272943,20.784782,421.35834)">
        <path
           inkscape:connector-curvature="0"
           d="m 0,0 c -0.461,-1.61 -0.892,-3.884 -1.293,-6.82 -0.405,-2.936 -0.606,-6.588 -0.606,-10.964 0,-8.634 2.85,-15.54 8.547,-20.72 5.699,-5.18 13.785,-7.771 24.262,-7.771 4.601,0 8.918,0.462 12.949,1.382 4.028,0.922 7.51,2.417 10.445,4.489 2.936,2.072 5.238,4.749 6.908,8.029 1.667,3.281 2.503,7.225 2.503,11.827 0,4.377 -0.749,8.405 -2.244,12.088 -1.498,3.685 -3.052,6.504 -4.662,8.46 L 0,0 z m 71.831,0 c 1.265,-1.956 2.59,-4.92 3.97,-8.892 1.382,-3.972 2.072,-8.547 2.072,-13.727 0,-6.445 -1.15,-12.173 -3.452,-17.181 -2.304,-5.007 -5.526,-9.237 -9.67,-12.691 -4.144,-3.453 -9.095,-6.07 -14.85,-7.857 -5.757,-1.783 -12.086,-2.676 -18.991,-2.676 -7.254,0 -13.789,1.066 -19.6,3.195 -5.813,2.131 -10.734,5.153 -14.762,9.065 -4.031,3.915 -7.138,8.633 -9.325,14.159 -2.185,5.525 -3.28,11.741 -3.28,18.648 0,7.484 0.517,14.102 1.554,19.857 1.036,5.757 2.071,10.476 3.108,14.159 l 128.638,0 L 120.005,0"
           style="fill:#ffffff;fill-opacity:1;fill-rule:nonzero;stroke:none"
           id="path17381" />
      </g>
      <g
         id="g17383"
         transform="matrix(0.29272943,0,0,0.29272943,17.44913,376.67699)">
        <path
           inkscape:connector-curvature="0"
           d="m 0,0 c -0.922,3.686 -1.9,8.548 -2.935,14.591 -1.037,6.044 -1.554,13.037 -1.554,20.979 0,6.907 1.008,12.721 3.02,17.44 2.013,4.722 4.863,8.521 8.548,11.396 3.683,2.879 8.03,4.95 13.037,6.216 5.007,1.268 10.559,1.9 16.662,1.9 l 50.419,0 0,-16.058 -46.965,0 c -10.938,0 -18.765,-1.728 -23.482,-5.18 -4.723,-3.454 -7.081,-9.266 -7.081,-17.44 0,-1.727 0.057,-3.51 0.174,-5.353 0.112,-1.84 0.259,-3.567 0.431,-5.18 0.173,-1.611 0.344,-3.079 0.517,-4.403 0.173,-1.322 0.372,-2.272 0.604,-2.849 l 75.802,0 0,-16.059"
           style="fill:#ffffff;fill-opacity:1;fill-rule:nonzero;stroke:none"
           id="path17385" />
      </g>
      <g
         id="g17387"
         transform="matrix(0.29272943,0,0,0.29272943,42.216091,369.9047)">
        <path
           inkscape:connector-curvature="0"
           d="m 0,0 c 0.92,-3.683 1.9,-8.573 2.936,-14.677 1.036,-6.1 1.553,-13.122 1.553,-21.064 0,-7.138 -1.008,-13.064 -3.021,-17.786 -2.016,-4.719 -4.834,-8.488 -8.46,-11.31 -3.627,-2.818 -7.974,-4.804 -13.037,-5.957 -5.067,-1.149 -10.65,-1.727 -16.75,-1.727 l -50.418,0 0,16.06 46.966,0 c 5.524,0 10.243,0.375 14.158,1.121 3.912,0.751 7.079,1.985 9.496,3.713 2.419,1.726 4.173,4.03 5.267,6.906 1.094,2.88 1.641,6.448 1.641,10.704 0,1.729 -0.059,3.515 -0.173,5.354 -0.115,1.843 -0.26,3.599 -0.433,5.266 -0.172,1.672 -0.375,3.168 -0.604,4.489 -0.232,1.325 -0.405,2.275 -0.517,2.85 l -75.801,0 0,16.058"
           style="fill:#ffffff;fill-opacity:1;fill-rule:nonzero;stroke:none"
           id="path17389" />
      </g>
      <g
         id="g17391"
         transform="matrix(0.29272943,0,0,0.29272943,42.973965,337.80896)">
        <path
           inkscape:connector-curvature="0"
           d="m 0,0 0,-34.016 -13.468,0 0,34.016 -41.439,0 c -4.489,0 -8.202,-0.344 -11.137,-1.036 -2.936,-0.69 -5.239,-1.726 -6.907,-3.108 -1.67,-1.38 -2.849,-3.107 -3.54,-5.179 -0.69,-2.072 -1.036,-4.489 -1.036,-7.252 0,-4.948 0.545,-8.864 1.64,-11.742 1.093,-2.875 1.87,-4.834 2.331,-5.87 l -13.123,-3.453 c -0.806,1.612 -1.843,4.462 -3.107,8.547 -1.266,4.087 -1.899,8.718 -1.899,13.9 0,6.101 0.776,11.136 2.33,15.108 1.556,3.971 3.886,7.165 6.993,9.582 3.109,2.418 6.934,4.118 11.484,5.094 4.545,0.98 9.811,1.469 15.799,1.469 l 80.117,0 L 27.801,0"
           style="fill:#ffffff;fill-opacity:1;fill-rule:nonzero;stroke:none"
           id="path17393" />
      </g>
      <g
         id="g17395"
         transform="matrix(0.29272943,0,0,0.29272943,17.44913,302.2763)">
        <path
           inkscape:connector-curvature="0"
           d="m 0,0 c -0.922,3.686 -1.9,8.549 -2.935,14.59 -1.037,6.044 -1.554,13.036 -1.554,20.98 0,6.907 1.008,12.72 3.02,17.439 2.013,4.722 4.863,8.521 8.548,11.397 3.683,2.878 8.03,4.95 13.037,6.216 5.007,1.268 10.559,1.9 16.662,1.9 l 50.419,0 0,-16.06 -46.965,0 C 29.294,56.462 21.467,54.736 16.75,51.283 12.027,47.83 9.669,42.018 9.669,33.844 c 0,-1.727 0.057,-3.51 0.174,-5.354 0.112,-1.839 0.259,-3.567 0.431,-5.179 0.173,-1.611 0.344,-3.078 0.517,-4.403 0.173,-1.322 0.372,-2.272 0.604,-2.849 l 75.802,0 0,-16.059"
           style="fill:#ffffff;fill-opacity:1;fill-rule:nonzero;stroke:none"
           id="path17397" />
      </g>
    </g>
  </g>
</svg>
